<?xml version="1.0" ?><!DOCTYPE svg  PUBLIC '-//W3C//DTD SVG 1.1//EN'  'http://www.w3.org/Graphics/SVG/1.1/DTD/svg11.dtd'><svg height="512px" style="enable-background:new 0 0 512 512;" version="1.1" viewBox="0 0 512 512" width="512px" xml:space="preserve" xmlns="http://www.w3.org/2000/svg" xmlns:xlink="http://www.w3.org/1999/xlink"><g id="_x33_3_x2C__Asteroid_x2C__astronomy_x2C__meteor_x2C__space_x2C__comet"><g><path d="M134.047,329.857c3.92-2.146,7.208-4.921,9.669-8.126    c2.92-3.833,4.608-8.296,4.608-13.046c0-7.066-3.748-13.504-9.756-18.225c-5.724-4.463-13.477-7.381-22.117-7.867l0.056,0.229    l0.018,0.086l0.028,0.114l0.042,0.229l0.056,0.199l0.014,0.086l0.028,0.144l0.06,0.2l0.042,0.229l0.028,0.086l0.028,0.114    l0.06,0.229l0.056,0.199l0.014,0.086l0.042,0.144l0.06,0.2l0.042,0.229l0.014,0.086l0.042,0.115l0.056,0.229l0.186,0.658    l0.06,0.201l0.014,0.086l0.042,0.143l0.056,0.199l0.631,2.175l0.028,0.086l0.042,0.144c0.702,2.316,1.502,4.635,2.362,6.923    c0.786,2.146,1.628,4.263,2.474,6.323l0.042,0.086l0.456,1.145l0.088,0.199l0.112,0.287l0.06,0.143l0.056,0.115l0.116,0.256    l0.084,0.229l0.028,0.058l0.116,0.258l0.112,0.257v0.028l0.116,0.229l0.116,0.286l0.028,0.086l0.084,0.171l0.102,0.259l0.07,0.172    l0.042,0.084l0.116,0.259l0.102,0.257h0.014l0.098,0.258l0.116,0.258l0.028,0.086l0.084,0.172l0.116,0.257l0.056,0.143l0.06,0.115    l0.112,0.257l0.088,0.229l0.028,0.029l0.098,0.258l0.116,0.229l0.014,0.057l0.102,0.201l0.098,0.258l0.056,0.113l0.06,0.115    l0.112,0.257l0.087,0.201l0.028,0.057l0.098,0.229l0.102,0.257l0.028,0.028l0.088,0.229l0.112,0.229l0.042,0.085l0.074,0.172    l0.098,0.229l0.074,0.172l0.042,0.057l0.214,0.486l0,0l0.028,0.086l0.088,0.172l0.084,0.199l0.042,0.115l0.045,0.057l0.07,0.172    l0.07,0.172l0.031,0.057l0.056,0.144l0.084,0.172l0.06,0.144l0.014,0.027l0.07,0.172l0.088,0.172l0.028,0.086l0.056,0.114    l0.07,0.172l0.074,0.171l0,0l0.084,0.172l0.06,0.172l0.056,0.115l0.028,0.057l0.07,0.172l0.074,0.171l0.028,0.028l0.056,0.144    l0.06,0.172l0.056,0.144l0.028,0.027l0.056,0.172l0.116,0.229l0.042,0.114l0.07,0.172l0.06,0.172l0,0l0.084,0.171l0.13,0.345    l0.07,0.17l0.06,0.172h0.028l0.056,0.144l0.056,0.172l0.2,0.515l0.032,0.029l0.042,0.114l0.07,0.171l0.06,0.143v0.029l0.056,0.172    l0.07,0.172l0.028,0.057l0.046,0.086l0.112,0.344h0.014l0.06,0.172l0.056,0.143l0.042,0.086l0.028,0.086l0.06,0.172l0.056,0.143    l0.316,0.802l0.014,0.057l0.442,1.23l0,0l0.144,0.401l0,0l0.028,0.084l0.042,0.086l0.028,0.115l0.73,2.061l0.014,0.057    l0.014,0.028l0.088,0.286l0.028,0.058v0.028l0.457,1.402l0.028,0.086l0.032,0.057l0.028,0.115l0.028,0.085l0.028,0.086    l0.028,0.086h0.014l0.045,0.172l0.028,0.086L134.047,329.857z M375.346,387.334c-2.832-2.889-6.437-5.32-10.57-7.123    c-5.022-2.203-10.859-3.462-17.082-3.462c-9.683,0-18.411,3.062-24.689,7.954c-6.022,4.691-9.756,11.157-9.756,18.195    c0,4.978,1.846,9.642,5.008,13.562l0.056,0.086c3.074,3.805,7.409,6.98,12.561,9.184l1.103-0.858l2.516-2.031    c1.232-1.03,2.503-2.117,3.805-3.262l0.014-0.028l0.088-0.058l0.099-0.114l0.103-0.058l0.186-0.172    c6.78-5.95,12.9-11.329,20.226-17.252C365.477,396.662,370.825,392.342,375.346,387.334z M324.306,430.335    c-4.548-2.489-8.454-5.693-11.444-9.383l-0.07-0.086c-4.166-5.179-6.58-11.33-6.58-17.968c0-9.298,4.776-17.709,12.486-23.717    c7.469-5.837,17.724-9.441,28.996-9.441c7.182,0,13.979,1.459,19.886,4.033c4.664,2.031,8.784,4.777,12.16,8.04    c5.591-7.982,9.726-18.425,13.175-35.733c3.517-17.539,8.041-27.152,13.045-37.823c2.977-6.323,6.139-13.046,9.343-22.144    l0.056-0.201c3.576-10.785,2.046-20.828-2.172-30.098c-4.334-9.613-11.574-18.54-19.029-26.723l-6.162-6.666    c-14.766-15.82-31.172-40.998-46.207-54.474c-4.678-4.205-9.957-7.695-16.238-10.156c-4.764-1.859-13.92-3.062-24.16-3.806    c-16.253-1.173-34.906-1.173-43.873-1c-18.126,0.399-29.669,2.289-37.124,8.211c-7.38,5.864-11.272,16.164-14.119,33.416    c-7.296,44.117-19.956,45.662-46.606,48.895c-6.91,0.83-14.877,1.803-24.047,3.805c-16.523,3.835-21.156,14.162-20.485,26.15    c0.028,0.687,0.088,1.373,0.158,2.06c10.714,0.286,20.429,3.834,27.582,9.413c7.71,6.037,12.487,14.419,12.487,23.746    c0,6.322-2.232,12.273-6.079,17.309c-3.306,4.32-7.826,7.982-13.188,10.701l0.73,2.575c1.386,4.892,2.832,9.956,4.818,15.62    c1.488,3.949,3.004,7.811,4.65,11.502c1.632,3.662,3.447,7.295,5.521,10.814c1.66,2.547,3.162,4.692,4.766,6.694    c1.643,2.06,3.39,4.006,5.534,6.237c11.901,12.303,22.745,20.971,34.791,27.036c11.989,6.037,25.265,9.557,42.058,11.587    l0.07,0.028c3.762,0.458,7.482,0.974,11.174,1.518c3.604,0.543,7.31,1.173,11.128,1.831l12.203,2.23    C296.139,438.633,307.783,440.807,324.306,430.335z M230.506,255.957c6.967,0,13.319,2.261,17.951,5.894    c4.878,3.806,7.896,9.126,7.896,15.078c0,5.951-3.018,11.302-7.896,15.106c-4.632,3.633-10.984,5.864-17.951,5.864    c-6.952,0-13.318-2.231-17.955-5.864c-4.878-3.805-7.896-9.155-7.896-15.106c0-5.952,3.019-11.272,7.896-15.078    C217.188,258.218,223.554,255.957,230.506,255.957z M229.061,337.354c-3.018-3.033-7.208-4.922-11.816-4.922    c-4.619,0-8.813,1.889-11.817,4.922c-3.032,3.004-4.906,7.182-4.906,11.815c0,4.606,1.874,8.813,4.906,11.816    c3.004,3.032,7.198,4.892,11.817,4.892c4.608,0,8.798-1.859,11.816-4.892c3.032-3.004,4.906-7.21,4.906-11.816    C233.967,344.535,232.093,340.357,229.061,337.354z M217.244,325.394c6.552,0,12.504,2.69,16.796,6.981    c4.289,4.291,6.953,10.242,6.953,16.794s-2.664,12.503-6.953,16.795c-4.292,4.291-10.244,6.952-16.796,6.952    c-6.566,0-12.501-2.661-16.793-6.952c-4.292-4.292-6.966-10.243-6.966-16.795s2.674-12.503,6.966-16.794    S210.678,325.394,217.244,325.394z M300.473,177.394c-5.078-3.948-12.175-6.408-20.057-6.408c-7.883,0-14.976,2.46-20.055,6.408    c-4.835,3.806-7.84,8.956-7.84,14.62c0,5.637,3.004,10.786,7.84,14.592c5.079,3.947,12.172,6.408,20.055,6.408    c7.882,0,14.979-2.461,20.057-6.408c4.836-3.806,7.84-8.955,7.84-14.592C308.313,186.35,305.309,181.199,300.473,177.394z     M280.416,163.947c9.458,0,18.084,3.033,24.362,7.926c6.524,5.121,10.558,12.216,10.558,20.141    c0,7.896-4.033,15.021-10.558,20.113c-6.278,4.892-14.904,7.925-24.362,7.925c-9.47,0-18.082-3.033-24.375-7.925    c-6.51-5.093-10.556-12.217-10.556-20.113c0-7.925,4.046-15.02,10.556-20.141C262.334,166.98,270.946,163.947,280.416,163.947z     M345.02,300.074l0.027-0.086c1.261-2.518,2.549-5.293,3.549-8.154c0.93-2.66,1.632-5.35,1.744-7.84l0.014-0.143    c0.158-3.891-1.4-6.98-3.846-9.326c-3.404-3.262-8.525-5.293-13.418-6.295c-4.85-1.029-9.816,0.287-14.107,2.891    c-4.977,3.032-9.041,7.811-11.143,12.846c-2.188,5.235-0.871,7.381,1.716,8.469c1.948,0.801,4.594,1.345,7.31,1.888l4.121,0.858    c9.742,2.261,11.374,4.492,15.477,10.157l2.307,3.089c0.186,0.229,0.47,0.143,0.758-0.057l0.126-0.114    C341.871,306.396,344.062,301.99,345.02,300.074z M139.224,404.329c0.972-1.688,3.12-2.26,4.78-1.287    c1.688,0.944,2.26,3.089,1.302,4.777l-44.133,76.417c-0.958,1.688-3.106,2.261-4.78,1.288c-1.67-0.943-2.242-3.09-1.284-4.777    L139.224,404.329z M165.131,443.411c0.958-1.66,3.12-2.262,4.794-1.288c1.674,0.973,2.246,3.119,1.284,4.806l-19.137,33.131    c-0.976,1.688-3.12,2.261-4.808,1.288c-1.66-0.973-2.232-3.119-1.274-4.778L165.131,443.411z M312.991,27.763    c0.958-1.688,3.116-2.261,4.79-1.287s2.246,3.118,1.274,4.778l-42.314,73.299c-0.973,1.688-3.12,2.26-4.794,1.287    c-1.675-0.973-2.246-3.119-1.288-4.777L312.991,27.763z M325.064,56.717c0.972-1.689,3.115-2.261,4.79-1.287    c1.674,0.973,2.246,3.117,1.288,4.777l-42.328,73.328c-0.958,1.658-3.12,2.23-4.791,1.258c-1.674-0.973-2.246-3.118-1.273-4.777    L325.064,56.717z M395.473,81.121c0.958-1.66,3.12-2.232,4.794-1.259c1.66,0.973,2.246,3.118,1.274,4.778l-42.314,73.299    c-0.977,1.688-3.12,2.26-4.795,1.287c-1.674-0.973-2.246-3.119-1.287-4.777L395.473,81.121z M119.654,374.403    c0.958-1.688,3.12-2.261,4.78-1.287c1.674,0.944,2.26,3.09,1.285,4.776l-24.174,41.886c-0.944,1.659-3.106,2.231-4.78,1.287    c-1.67-0.973-2.243-3.118-1.284-4.777L119.654,374.403z M351.371,303.05l-0.073,0.172c-1.144,2.288-3.79,7.581-7.152,10.413    l-0.228,0.172c-3.334,2.689-7.023,3.318-10.543-0.887l-2.591-3.462c-3.004-4.119-4.19-5.779-11.398-7.438l-3.836-0.801    c-3.061-0.602-6.064-1.23-8.683-2.317c-6.366-2.632-9.841-7.238-5.507-17.653c2.66-6.322,7.753-12.302,13.976-16.107    c5.724-3.49,12.43-5.206,19.168-3.775c5.995,1.229,12.375,3.834,16.854,8.125c3.833,3.662,6.251,8.497,5.994,14.677l-0.014,0.114    c-0.158,3.291-0.989,6.666-2.133,9.898C354.116,297.299,352.716,300.332,351.371,303.05z" style="fill-rule:evenodd;clip-rule:evenodd;"/></g></g><g id="Layer_1"/></svg>